<svg width="1728" height="1117" viewBox="0 0 1728 1117" fill="none" xmlns="http://www.w3.org/2000/svg">
<g clip-path="url(#clip0_1079_2)">
<rect width="1728" height="1117" fill="url(#paint0_linear_1079_2)"/>
<path d="M24.656 56.32C22.9067 56.32 21.648 55.9573 20.88 55.232C20.1333 54.4853 19.76 53.248 19.76 51.52C19.76 50.4107 19.8667 49.5253 20.08 48.864C20.2933 48.1813 20.7093 47.6693 21.328 47.328C21.968 46.9653 22.9067 46.7307 24.144 46.624C25.3813 46.496 27.0133 46.432 29.04 46.432H30.48V48.512H25.264C24.2613 48.512 23.5787 48.64 23.216 48.896C22.8533 49.152 22.672 49.6427 22.672 50.368V53.856H26.96C27.9627 53.856 28.6347 53.728 28.976 53.472C29.3387 53.216 29.52 52.7253 29.52 52V42.56C28.7307 42.3253 27.6533 42.208 26.288 42.208C25.456 42.208 24.5813 42.272 23.664 42.4C22.7467 42.528 21.8187 42.72 20.88 42.976L20.464 40.64C20.9973 40.448 21.616 40.2773 22.32 40.128C23.024 39.9787 23.7707 39.872 24.56 39.808C25.3493 39.7227 26.1067 39.68 26.832 39.68C28.2827 39.68 29.4347 39.8293 30.288 40.128C31.1627 40.4053 31.7813 40.8747 32.144 41.536C32.528 42.176 32.72 43.0507 32.72 44.16V56H31.248L30.384 54.4C29.616 55.0613 28.7627 55.552 27.824 55.872C26.9067 56.1707 25.8507 56.32 24.656 56.32ZM45.9655 39.52C47.1175 39.52 48.0668 39.648 48.8135 39.904C49.5602 40.1387 50.1468 40.576 50.5735 41.216C51.0002 41.8347 51.2988 42.6987 51.4695 43.808C51.6402 44.896 51.7255 46.2933 51.7255 48C51.7255 49.6853 51.6295 51.072 51.4375 52.16C51.2668 53.2267 50.9468 54.0693 50.4775 54.688C50.0082 55.2853 49.3575 55.712 48.5255 55.968C47.6935 56.2027 46.6268 56.32 45.3255 56.32C44.0882 56.32 43.0748 56.2133 42.2855 56C41.5175 55.7867 40.9202 55.392 40.4935 54.816C40.0882 54.2187 39.8108 53.376 39.6615 52.288C39.5122 51.1787 39.4375 49.7493 39.4375 48C39.4375 46.208 39.5228 44.7573 39.6935 43.648C39.8642 42.5387 40.1735 41.6853 40.6215 41.088C41.0908 40.4907 41.7522 40.0853 42.6055 39.872C43.4802 39.6373 44.6002 39.52 45.9655 39.52ZM48.3655 42.144H42.9895C42.4135 42.144 42.0188 42.1973 41.8055 42.304C41.6135 42.4107 41.5175 42.624 41.5175 42.944V53.696H46.8935C47.4482 53.696 47.8322 53.6533 48.0455 53.568C48.2588 53.4613 48.3655 53.2907 48.3655 53.056V42.144ZM38.3175 34.72L41.5175 34.336V52.8V54.336L45.3255 56.32C44.0242 56.32 42.8402 56.2347 41.7735 56.064C40.7068 55.9147 39.5548 55.6693 38.3175 55.328V34.72ZM56.5363 40.224L59.7363 39.744V56H56.5363V40.224ZM58.1683 37.216C57.3789 37.216 56.8456 37.088 56.5683 36.832C56.3123 36.5547 56.1843 36.0427 56.1843 35.296C56.1843 34.528 56.3229 34.0053 56.6003 33.728C56.8776 33.4507 57.4003 33.312 58.1683 33.312C58.9149 33.312 59.4163 33.4507 59.6723 33.728C59.9496 34.0053 60.0883 34.528 60.0883 35.296C60.0883 36.0427 59.9603 36.5547 59.7043 36.832C59.4483 37.088 58.9363 37.216 58.1683 37.216ZM68.833 56.32C68.0437 56.32 67.4463 56.128 67.041 55.744C66.657 55.3387 66.465 54.7307 66.465 53.92V36.576L69.665 35.776V53.632C69.9637 53.6533 70.2837 53.6853 70.625 53.728C70.9663 53.7493 71.4037 53.7707 71.937 53.792L71.745 55.968C71.0837 56.096 70.5183 56.1813 70.049 56.224C69.5797 56.288 69.1743 56.32 68.833 56.32ZM64.225 42.208V40H72.513V42.208H64.225ZM78.7055 55.04L74.1295 40H77.2975L80.9775 52.32H81.2975L84.9775 40H88.1455L83.5695 55.04H78.7055ZM76.9135 61.6C76.4442 61.6 75.9535 61.568 75.4415 61.504C74.9508 61.44 74.5135 61.3547 74.1295 61.248L74.2575 59.552L76.4655 59.264C77.2762 59.1573 77.9055 58.9973 78.3535 58.784C78.8228 58.592 79.1855 58.272 79.4415 57.824C79.7188 57.3973 79.9748 56.7893 80.2095 56L80.4975 55.04H83.5695C83.0788 56.6827 82.5348 57.984 81.9375 58.944C81.3615 59.904 80.6682 60.5867 79.8575 60.992C79.0682 61.3973 78.0868 61.6 76.9135 61.6Z" fill="white"/>
</g>
<defs>
<linearGradient id="paint0_linear_1079_2" x1="864" y1="0" x2="864" y2="1117" gradientUnits="userSpaceOnUse">
<stop stop-color="#FDFDFD"/>
<stop offset="1" stop-color="#DAD8F8"/>
</linearGradient>
<clipPath id="clip0_1079_2">
<rect width="1728" height="1117" fill="white"/>
</clipPath>
</defs>
</svg>
