<svg width="477" height="501" viewBox="0 0 477 501" fill="none" xmlns="http://www.w3.org/2000/svg" style="width: 100%; height: 100%;">
<g clip-path="url(#clip0_35_2309)">
<path d="M43.12 123.186L47.628 119.477C47.443 119.582 47.258 119.687 43.12 123.186Z" stroke="#010101" stroke-width="1.5" stroke-linecap="round" stroke-linejoin="round"></path>
<path d="M447.89 341.295C449.652 341.706 451.415 342.118 453.177 342.529" stroke="#010101" stroke-width="1.5" stroke-linecap="round" stroke-linejoin="round"></path>
<path d="M471.572 210.243C473.075 209.007 474.578 207.77 476.08 206.534C475.895 206.639 475.71 206.744 471.572 210.243Z" stroke="#010101" stroke-width="1.5" stroke-linecap="round" stroke-linejoin="round"></path>
<path d="M299.321 168.168C308.885 163.476 316.922 159.661 326.486 154.969C327.955 154.248 331.094 153.158 331.771 155.098C332.253 156.48 329.381 159.914 321.678 162.95C329.56 159.382 333.193 157.96 341.075 154.392C342.072 153.941 343.281 153.501 344.091 154.096C344.921 154.705 344.779 156.128 344.085 157.035C343.391 157.943 342.328 158.459 341.313 158.938C335.492 161.681 335.32 162.374 329.499 165.117C336.981 161.408 337.66 160.658 345.458 157.937C346.749 157.486 348.417 157.155 349.109 158.227C350.413 160.99 345.1 163.091 341.002 164.809C338.654 165.794 336.408 166.705 330.777 168.854C336.472 166.926 338.706 165.84 344.404 163.926C345.474 163.567 346.619 163.204 347.645 163.488C348.671 163.772 349.426 164.998 348.852 166.002C348.487 166.641 347.752 166.955 347.08 167.216C340.847 169.639 338.777 171.04 332.544 173.463C337.092 171.771 337.6 171.554 342.296 170.794C343.691 170.568 345.56 170.732 345.665 172.127C345.762 173.416 344.209 174.275 342.955 174.716C330.611 179.058 321.285 181.403 308.941 185.745" fill="white"></path>
<path d="M299.321 168.168C308.885 163.476 316.922 159.661 326.486 154.969C327.955 154.248 331.094 153.158 331.771 155.098C332.253 156.48 329.381 159.914 321.678 162.95C329.56 159.382 333.193 157.96 341.075 154.392C342.072 153.941 343.281 153.501 344.091 154.096C344.921 154.705 344.779 156.128 344.085 157.035C343.391 157.943 342.328 158.459 341.313 158.938C335.492 161.681 335.32 162.374 329.499 165.117C336.981 161.408 337.66 160.658 345.458 157.937C346.749 157.486 348.417 157.155 349.109 158.227C350.413 160.99 345.1 163.091 341.002 164.809C338.654 165.794 336.408 166.705 330.777 168.854C336.472 166.926 338.706 165.84 344.404 163.926C345.474 163.567 346.619 163.204 347.645 163.488C348.671 163.772 349.426 164.998 348.852 166.002C348.487 166.641 347.752 166.955 347.08 167.216C340.847 169.639 338.777 171.04 332.544 173.463C337.092 171.771 337.6 171.554 342.296 170.794C343.691 170.568 345.56 170.732 345.665 172.127C345.762 173.416 344.209 174.275 342.955 174.716C330.611 179.058 321.285 181.403 308.941 185.745" stroke="#010101" stroke-width="1.5" stroke-linecap="round" stroke-linejoin="round"></path>
<path d="M321.677 162.951C321.995 165.033 322.126 167.171 321.723 169.238C321.32 171.305 320.343 173.31 318.732 174.667" stroke="#010101" stroke-width="1.5" stroke-linecap="round" stroke-linejoin="round"></path>
<path d="M126.751 156.309C116.045 158.656 105.143 160.111 94.545 160.685C97.915 152.037 100.644 130.461 105.057 115.697C105.864 112.996 106.713 110.277 108.129 107.84C111.2 102.554 116.658 99.076 122.292 96.7C130.822 93.103 137.983 92.306 147.236 92.008C149.998 91.919 152.827 91.945 155.431 92.871C159.535 94.33 162.613 97.898 164.45 101.847C166.287 105.796 167.046 110.147 167.787 114.439C168.859 120.649 170.168 127.334 171.24 133.545C172.456 140.589 172.851 147.105 177.621 152.637C153.317 157.965 144.742 154.052 126.752 156.31L126.751 156.309Z" fill="#010101" stroke="#010101" stroke-width="1.5" stroke-linecap="round" stroke-linejoin="round"></path>
<path d="M196.899 463.657C195.019 474.49 193.139 485.323 191.258 496.156C196.905 497.218 202.626 497.885 208.366 498.151C209.535 493.383 210.816 488.642 212.209 483.934C212.482 489.075 213.449 494.178 215.387 499.393C233.453 498.222 251.613 498.494 269.636 500.207C270.733 498.09 269.991 495.396 268.469 493.561C266.947 491.726 264.785 490.564 262.679 489.446C257.419 486.654 252.158 483.862 246.898 481.07C245.627 480.395 244.277 479.643 243.637 478.354C243.281 477.637 243.184 476.824 243.092 476.029C242.663 472.323 242.234 468.617 241.806 464.911C223.332 465.099 204.858 465.286 196.899 463.657Z" fill="#010101" stroke="#010101" stroke-width="1.5" stroke-linecap="round" stroke-linejoin="round"></path>
<path d="M294.979 441.436C298.193 451.95 301.408 462.465 304.622 472.979C310.14 471.376 315.546 469.388 320.787 467.033C319.677 462.251 318.679 457.442 317.795 452.613C320.36 457.077 323.528 461.193 327.611 464.971C343.201 455.768 359.527 447.81 376.381 441.199C376.404 438.815 374.525 436.746 372.339 435.796C370.152 434.846 367.698 434.785 365.315 434.739C359.361 434.623 353.406 434.508 347.452 434.392C346.013 434.364 344.469 434.302 343.316 433.441C342.675 432.962 342.221 432.281 341.78 431.613C339.724 428.5 337.668 425.387 335.612 422.274C319.214 430.784 302.816 439.294 294.979 441.435V441.436Z" fill="#010101" stroke="#010101" stroke-width="1.5" stroke-linecap="round" stroke-linejoin="round"></path>
<path d="M127.336 133.856C126.683 145.133 126.674 152.644 126.017 163.987C122.234 165.66 114.532 166.078 111.071 168.343C109.49 169.378 108.233 170.836 107.105 172.353C104.263 176.175 102.102 180.503 100.756 185.071C99.454 189.486 98.924 194.266 100.231 198.68C102.094 204.969 107.518 209.736 113.581 212.24C119.643 214.743 126.325 215.273 132.882 215.414C144.29 215.659 155.849 214.789 166.69 211.23C171.7 209.585 176.674 207.267 180.177 203.325C184.922 197.984 186.301 190.128 184.552 183.201C182.803 176.274 178.206 170.28 172.52 165.956C169.739 163.841 166.336 162.014 162.825 162.8C159.943 162.605 154.437 163.499 151.549 163.581C151.549 158.533 152.021 154.497 152.552 149.137C156.469 147.778 161.83 143.111 163.002 139.134C164.174 135.157 163.994 130.917 163.606 126.789C163.193 122.391 162.557 118.015 161.701 113.682C161.292 111.61 160.821 109.518 159.82 107.658C157.606 103.546 153.196 101.197 149.285 98.936C145.833 107.74 142.199 112.629 135.161 118.945C133.591 120.354 131.831 121.734 129.581 122.481C128.231 119.59 124.252 119.719 122.084 122.951C121.504 123.815 116.431 134.667 127.336 133.856Z" fill="white" stroke="#010101" stroke-width="1.5" stroke-linecap="round" stroke-linejoin="round"></path>
<path d="M111.725 196.69C121.731 193.861 133.644 195.016 143.942 199.62C146.881 195.499 152.369 192.065 157.074 190.2C164.042 187.438 169.217 186.465 171.461 186.774C175.122 189.755 186.19 252.401 185.28 303.6C177.532 306.887 123.523 305.124 103.661 305.03C101.815 299.089 100.123 288.985 99.093 282.85C98.334 278.329 98.47 273.711 98.609 269.129C98.862 260.785 107.683 205.244 111.725 196.69Z" fill="#FF8B37" stroke="#010101" stroke-width="1.5" stroke-linecap="round" stroke-linejoin="round"></path>
<path d="M327.346 367.688C330.828 359.733 337.299 347.456 343.13 341.022C346.338 337.482 349.924 334.203 354.152 331.977C355.912 331.05 357.86 330.299 359.842 330.471C364.139 330.844 366.866 335.236 368.237 339.325C371.703 349.664 370.985 360.983 368.654 371.636C366.323 382.288 362.446 392.536 359.272 402.908C343.316 404.588 329.687 404.592 313.66 405.334C313.933 402.12 322.364 379.069 327.345 367.688H327.346Z" fill="#55D087" stroke="#010101" stroke-width="1.5" stroke-linecap="round" stroke-linejoin="round"></path>
<path d="M361.746 386.647C366.926 369.824 375.998 353.1 391.338 344.468C395.262 342.26 400.332 340.698 404.092 343.175C407.659 345.524 408.382 350.396 408.467 354.667C408.777 370.421 405.027 385.94 401.032 401.497C385.92 401.487 370.808 402.182 355.761 403.579C358.144 398.356 359.823 392.892 361.746 386.647Z" fill="#55D087" stroke="#010101" stroke-width="1.5" stroke-linecap="round" stroke-linejoin="round"></path>
<path d="M398.254 347.217C391.458 364.991 384.972 382.885 378.801 400.886" stroke="#010101" stroke-width="1.5" stroke-linecap="round" stroke-linejoin="round"></path>
<path d="M357.737 337.175C350.085 359.613 343.332 382.357 337.499 405.334" stroke="#010101" stroke-width="1.5" stroke-linecap="round" stroke-linejoin="round"></path>
<path d="M389.279 371.255C393.3 367.718 397.759 364.681 402.523 362.235" stroke="#010101" stroke-width="1.5" stroke-linecap="round" stroke-linejoin="round"></path>
<path d="M383.983 386.687C381.531 382.382 379.295 377.954 377.287 373.425" stroke="#010101" stroke-width="1.5" stroke-linecap="round" stroke-linejoin="round"></path>
<path d="M351.73 355.84C349.437 353.188 347.315 350.389 345.381 347.465" stroke="#010101" stroke-width="1.5" stroke-linecap="round" stroke-linejoin="round"></path>
<path d="M342.693 385.168C349.362 379.888 356.214 374.839 363.233 370.033C362.954 370.067 362.676 370.1 362.397 370.134" stroke="#010101" stroke-width="1.5" stroke-linecap="round" stroke-linejoin="round"></path>
<path d="M168.56 268.106C168.43 232.711 166.358 197.324 162.887 162.634C171.621 161.914 180.963 161.318 188.586 165.642C191.252 167.154 193.567 169.202 195.86 171.235C209.464 183.292 222.403 193.989 237.173 206.191C266.322 186.855 276.369 179.586 301.729 162.765C310.872 171.908 315.136 178.355 321.997 187.2C306.844 203.051 290.997 217.327 272.91 229.725C266.328 234.237 258.089 238.531 250.623 241.349C231.484 248.572 213.877 240.184 197.282 227.609C199.569 249.624 202.963 282.265 206.232 303.982C194.875 304.587 182.491 304.616 171.042 304.616C170.46 304.616 168.597 278.101 168.56 268.107V268.106Z" fill="#010101" stroke="#010101" stroke-width="1.5" stroke-linecap="round" stroke-linejoin="round"></path>
<path d="M193.591 202.752C194.292 211.643 195.537 220.491 197.316 229.23" stroke="#010101" stroke-width="1.5" stroke-linecap="round" stroke-linejoin="round"></path>
<path d="M122.317 205.524C123.989 204.765 125.661 204.007 127.333 203.248" stroke="#010101" stroke-width="1.5" stroke-linecap="round" stroke-linejoin="round"></path>
<path d="M126.017 224.858C127.796 223.27 129.575 221.682 131.354 220.094C131.215 220.288 131.076 220.482 126.017 224.858Z" stroke="#010101" stroke-width="1.5" stroke-linecap="round" stroke-linejoin="round"></path>
<path d="M157.631 203.453C158.205 205.216 158.779 206.979 159.353 208.743" stroke="#010101" stroke-width="1.5" stroke-linecap="round" stroke-linejoin="round"></path>
<path d="M156.276 223.514C158.038 223.928 159.801 224.342 161.563 224.756" stroke="#010101" stroke-width="1.5" stroke-linecap="round" stroke-linejoin="round"></path>
<path d="M148.249 238.443C149.752 237.2 151.255 235.956 152.757 234.713C152.572 234.818 152.387 234.924 148.249 238.443Z" stroke="#010101" stroke-width="1.5" stroke-linecap="round" stroke-linejoin="round"></path>
<path d="M144.25 215.991C143.833 217.835 143.415 219.678 142.998 221.522" stroke="#010101" stroke-width="1.5" stroke-linecap="round" stroke-linejoin="round"></path>
<path d="M126.495 244.683C127.725 245.585 128.955 246.487 130.185 247.389" stroke="#010101" stroke-width="1.5" stroke-linecap="round" stroke-linejoin="round"></path>
<path d="M158.985 256.35L162.306 253.644" stroke="#010101" stroke-width="1.5" stroke-linecap="round" stroke-linejoin="round"></path>
<path d="M154.488 119.135L157.645 127.185C157.712 127.355 157.779 127.54 157.727 127.715C157.674 127.893 157.511 128.013 157.357 128.117C155.628 129.285 153.744 130.223 151.769 130.897" fill="white"></path>
<path d="M154.488 119.135L157.645 127.185C157.712 127.355 157.779 127.54 157.727 127.715C157.674 127.893 157.511 128.013 157.357 128.117C155.628 129.285 153.744 130.223 151.769 130.897" stroke="#010101" stroke-width="1.5" stroke-linecap="round" stroke-linejoin="round"></path>
<path d="M135.83 147.243C137.542 148.95 140.098 149.437 142.5 149.707C145.856 150.084 149.333 150.184 152.528 149.091" fill="white"></path>
<path d="M135.83 147.243C137.542 148.95 140.098 149.437 142.5 149.707C145.856 150.084 149.333 150.184 152.528 149.091" stroke="#010101" stroke-width="1.5" stroke-linecap="round" stroke-linejoin="round"></path>
<path d="M188.599 305.707C210.016 301.556 232.034 300.516 253.747 302.63C258.689 303.111 263.824 303.831 267.93 306.624C271.279 308.903 273.621 312.349 275.882 315.711C299.514 350.863 323.146 386.016 346.779 421.168C329.116 437.036 311.415 445.378 285.382 453.23C276.339 429.387 268.08 407.55 256.971 378.259C254.716 372.312 254.84 365.166 250.227 360.787C247.88 358.56 244.842 357.223 241.82 356.069C230.937 351.914 219.201 349.483 209.513 343.013C197.673 335.107 190.015 321.276 188.601 305.707H188.599Z" fill="#7B5FF1" stroke="#010101" stroke-width="1.5" stroke-linecap="round" stroke-linejoin="round"></path>
<path d="M87.293 304.94C85.768 311.712 84.388 312.4 84.303 319.34C84.218 326.281 85.69 333.431 89.699 339.098C94.636 346.078 102.799 349.946 110.799 352.964C142.432 364.899 174.852 362.431 204.338 362.431C195.699 401.262 193.63 426.879 188.6 466.598C211.865 472.043 233.615 473.267 258.594 468.229C254.455 437.222 253.472 405.795 255.665 374.59C256.774 358.801 255.598 342.077 250.892 326.965C247.85 317.198 238.235 301.426 195.416 304.261C167.484 306.11 113.965 305.78 87.293 304.94Z" fill="#7B5FF1" stroke="#010101" stroke-width="1.5" stroke-linecap="round" stroke-linejoin="round"></path>
<path d="M129.436 300.312C130.513 299.598 131.208 298.414 131.58 297.177C131.952 295.94 132.033 294.637 132.112 293.347C132.149 292.743 132.186 292.139 132.223 291.535L116.439 289.766L120.782 300.312L129.003 300.761" fill="white"></path>
<path d="M129.436 300.312C130.513 299.598 131.208 298.414 131.58 297.177C131.952 295.94 132.033 294.637 132.112 293.347C132.149 292.743 132.186 292.139 132.223 291.535L116.439 289.766L120.782 300.312L129.003 300.761" stroke="#010101" stroke-width="1.5" stroke-linecap="round" stroke-linejoin="round"></path>
<path d="M156.276 261.744C159.366 263.498 168.193 262.94 171.322 262.609C172.36 262.499 173.668 262.552 174.104 263.5C174.577 264.529 173.57 265.618 172.6 266.202C168.861 268.451 164.539 269.697 160.178 269.833" fill="white"></path>
<path d="M156.276 261.744C159.366 263.498 168.193 262.94 171.322 262.609C172.36 262.499 173.668 262.552 174.104 263.5C174.577 264.529 173.57 265.618 172.6 266.202C168.861 268.451 164.539 269.697 160.178 269.833" stroke="#010101" stroke-width="1.5" stroke-linecap="round" stroke-linejoin="round"></path>
<path d="M131.285 265.098C137.239 263.601 143.288 262.48 149.384 261.745C151.421 261.499 153.49 261.297 155.519 261.606C159.587 262.224 163.057 264.81 166.186 267.482C170.025 270.761 171.116 273.174 173.948 277.354C175.959 280.323 176.992 281.915 178.022 283.326C180.206 286.316 179.796 289.829 177.841 289.066C173.26 287.278 169.863 280.764 165.963 276.826C168.073 279.201 169.555 280.477 170.563 282.842C171.33 284.644 168.817 286.45 167.11 285.544C166.834 285.397 166.613 286.939 165.25 287.874C163.605 289.002 162.995 288.671 162.887 288.908C161.753 291.387 159.238 291.607 157.854 290.964C156.024 290.115 153.237 287.879 151.492 283.117C149.53 285.553 130.408 291.304 120.807 296.136C120.391 283.851 125.117 271.471 131.285 265.097V265.098Z" fill="white" stroke="#010101" stroke-width="1.5" stroke-linecap="round" stroke-linejoin="round"></path>
<path d="M161.807 279.143C163.41 281.86 165.25 284.988 167.11 285.544" stroke="#010101" stroke-width="1.5" stroke-linecap="round" stroke-linejoin="round"></path>
<path d="M156.937 281.781C158.005 283.614 159.125 285.42 160.44 287.084C160.734 287.457 161.81 288.685 163.095 288.743" stroke="#010101" stroke-width="1.5" stroke-linecap="round" stroke-linejoin="round"></path>
<path d="M380.082 107.115L389.653 0.75L257.747 1.18L247.427 109.618L380.082 107.115Z" fill="#E3E3FF" stroke="#010101" stroke-width="1.5" stroke-linecap="round" stroke-linejoin="round"></path>
<path d="M385.202 90.923C397.256 92.025 409.413 90.58 422.676 91.715C423.822 134.244 422.775 178.258 419.539 220.679" stroke="#010101" stroke-width="1.5" stroke-linecap="round" stroke-linejoin="round"></path>
<path d="M281.337 16.247C277.511 20.467 273.523 24.541 269.383 28.454C272.717 32.905 276.126 37.299 279.608 41.635" stroke="#010101" stroke-width="1.5" stroke-linecap="round" stroke-linejoin="round"></path>
<path d="M286.991 28.96C299.096 28.77 311.201 28.58 323.306 28.391" stroke="#010101" stroke-width="1.5" stroke-linecap="round" stroke-linejoin="round"></path>
<path d="M348.889 17.463C345.262 25.009 341.635 32.555 338.008 40.102C337.864 40.402 337.982 40.969 338.263 40.79" stroke="#010101" stroke-width="1.5" stroke-linecap="round" stroke-linejoin="round"></path>
<path d="M354.266 28.898H370.518" stroke="#010101" stroke-width="1.5" stroke-linecap="round" stroke-linejoin="round"></path>
<path d="M266.523 59.4C283.736 59.641 300.955 59.465 318.159 58.873" stroke="#010101" stroke-width="1.5" stroke-linecap="round" stroke-linejoin="round"></path>
<path d="M331.945 57.988C342.403 57.882 352.862 57.888 363.32 58.006" stroke="#010101" stroke-width="1.5" stroke-linecap="round" stroke-linejoin="round"></path>
<path d="M261.383 82.949C266.832 82.629 272.281 82.308 277.73 81.988" stroke="#010101" stroke-width="1.5" stroke-linecap="round" stroke-linejoin="round"></path>
<path d="M292.113 73.018C289.607 79.574 286.781 86.007 283.647 92.286" stroke="#010101" stroke-width="1.5" stroke-linecap="round" stroke-linejoin="round"></path>
<path d="M295.833 82.041C311.395 82.611 326.981 82.533 342.536 81.809" stroke="#010101" stroke-width="1.5" stroke-linecap="round" stroke-linejoin="round"></path>
<path d="M348.714 71.686C352.895 75.403 358.013 77.87 363.057 80.29C359.187 84.811 354.781 88.873 349.962 92.364" stroke="#010101" stroke-width="1.5" stroke-linecap="round" stroke-linejoin="round"></path>
<path d="M336.823 289.766C339.968 271.916 343.488 254.132 346.533 237.153C384.856 235.316 423.857 233.747 464.045 234.739C462.677 252.701 459.573 270.53 453.14 288.223C413.012 288.223 336.911 289.331 336.823 289.766Z" fill="#E3E3FF" stroke="#010101" stroke-width="1.5" stroke-linecap="round" stroke-linejoin="round"></path>
<path d="M396.013 252.041C414.184 251.671 432.364 251.701 450.534 252.129" stroke="#010101" stroke-width="1.5" stroke-linecap="round" stroke-linejoin="round"></path>
<path d="M393.099 265.098C402.049 265.346 410.993 265.771 419.926 266.373" stroke="#010101" stroke-width="1.5" stroke-linecap="round" stroke-linejoin="round"></path>
<path d="M370.383 247.326C367.78 246.716 364.995 247.272 362.612 248.483C360.229 249.694 358.209 251.522 356.422 253.511C353.966 256.243 351.808 259.587 351.875 263.26C351.942 266.965 354.365 270.362 357.536 272.279C360.707 274.196 364.523 274.796 368.227 274.729C371.93 274.662 375.871 273.834 378.452 271.178C379.718 269.875 380.565 268.218 381.197 266.514C381.992 264.368 382.476 262.073 382.301 259.791C382.021 256.137 380.022 252.722 377.2 250.383C374.379 248.044 370.794 246.731 370.382 247.328L370.383 247.326Z" fill="white" stroke="#010101" stroke-width="1.5" stroke-linecap="round" stroke-linejoin="round"></path>
<path d="M469.526 137.004C467.721 136.76 465.812 137.633 464.815 139.158C463.819 140.683 463.786 142.782 464.735 144.337C466.424 147.106 471.058 147.236 472.975 144.62C474.892 142.004 473.502 137.543 469.526 137.005V137.004Z" fill="#010101"></path>
<path d="M2.36201 264.79C1.58401 264.685 0.76101 265.061 0.33201 265.718C-0.0969899 266.375 -0.11099 267.28 0.29701 267.95C1.02501 269.143 3.02201 269.199 3.84801 268.072C4.67401 266.944 4.07501 265.022 2.36201 264.79Z" fill="#010101"></path>
<path d="M146.296 56.805C148.102 49.389 151.195 42.057 156.646 36.714C162.097 31.371 170.234 28.349 177.577 30.43C183.763 32.183 189.008 38.544 187.477 44.788C186.897 47.153 185.175 49.421 182.777 49.84C180.169 50.295 177.633 48.432 176.301 46.143C173.935 42.076 174.491 36.757 176.837 32.678C179.183 28.599 183.072 25.614 187.206 23.367C194.159 19.588 202.525 17.628 210.059 20.048" stroke="#010101" stroke-width="1.5" stroke-linecap="round" stroke-linejoin="round"></path>
<path d="M113.982 166.889C118.736 200.306 119.454 234.296 116.026 267.511C122.719 265.833 128.971 264.358 132.873 263.649C130.13 271.166 128.29 279.012 127.406 286.965C126.889 291.615 126.789 296.662 129.003 300.761C116.703 305.928 104.067 310.296 91.201 313.826C81.739 316.422 71.988 318.581 62.197 317.946C57.745 317.658 53.07 316.662 49.826 313.598C47.746 311.633 46.441 308.984 45.488 306.286C39.874 290.392 45.25 254.9 51.196 237.974C54.122 229.644 63.584 201.915 68.032 194.877C72.617 187.623 81.923 181.606 89.466 177.514C97.009 173.423 104.721 169.731 113.982 166.889Z" fill="#010101" stroke="#010101" stroke-width="1.5" stroke-linecap="round" stroke-linejoin="round"></path>
<path d="M70.862 281.529C86.651 275.909 102.694 271.002 118.925 266.827" stroke="white" stroke-width="1.5" stroke-linecap="round" stroke-linejoin="round"></path>
<path d="M88.994 228.817C86.339 245.485 83.386 262.105 80.137 278.667" stroke="white" stroke-width="1.5" stroke-linecap="round" stroke-linejoin="round"></path>
<path d="M205.689 299.409C193.836 299.475 181.983 299.541 170.13 299.608C169.535 300.78 169.155 302.061 169.014 303.367C168.978 303.696 168.97 304.065 169.186 304.316C169.428 304.597 169.848 304.617 170.219 304.615C182.845 304.547 195.469 304.286 208.086 303.831C208.378 302.511 207.43 301.168 206.225 300.555C205.02 299.942 203.617 299.888 205.689 299.41V299.409Z" fill="white" stroke="#010101" stroke-width="1.5" stroke-linecap="round" stroke-linejoin="round"></path>
<path d="M283.566 301.847C291.05 277.206 291.818 265.492 298.427 243.732C269.778 242.83 248.334 244.364 217.144 246.04C213.193 267.796 209.484 281.409 203.332 304.527C229.089 303.142 251.035 304.453 283.565 301.848L283.566 301.847Z" fill="white" stroke="#010101" stroke-width="1.5" stroke-linecap="round" stroke-linejoin="round"></path>
<path d="M251.992 266.487C249.8 266.853 247.453 267.296 245.893 268.879C245.039 269.746 244.503 270.894 244.249 272.084C243.456 275.805 245.669 279.938 249.206 281.341C252.743 282.744 257.187 281.252 259.161 277.999C259.84 276.88 260.241 275.605 260.426 274.309C260.583 273.212 260.583 272.065 260.19 271.029C259.661 269.636 258.465 268.579 257.134 267.909C255.803 267.239 254.332 266.908 251.992 266.487Z" fill="white" stroke="#010101" stroke-width="1.5" stroke-linecap="round" stroke-linejoin="round"></path>
<path d="M155.01 430.955C154.232 430.85 153.409 431.226 152.98 431.883C152.551 432.54 152.537 433.445 152.945 434.115C153.673 435.308 155.67 435.364 156.496 434.237C157.322 433.109 156.723 431.187 155.01 430.955Z" fill="#010101"></path>
</g>
<defs>
<clipPath id="clip0_35_2309">
<rect width="476.831" height="500.957" fill="white"></rect>
</clipPath>
</defs>
</svg>